<svg width="1180" height="188" viewBox="0 0 1180 188" fill="none" xmlns="http://www.w3.org/2000/svg">
<g clip-path="url(#clip0_3441_57540)">
<mask id="mask0_3441_57540" style="mask-type:luminance" maskUnits="userSpaceOnUse" x="0" y="0" width="1180" height="188">
<path d="M1180 0.735352H0V187.265H1180V0.735352Z" fill="white"/>
</mask>
<g mask="url(#mask0_3441_57540)">
<path d="M185.217 177.074C185.217 172.538 181.587 168.876 177.086 168.876C172.584 168.876 169.016 172.538 169.016 177.074C169.016 181.61 172.645 185.21 177.086 185.21C181.527 185.21 185.217 181.549 185.217 177.074Z" fill="#E6E7E8"/>
<path d="M283.859 177.053C283.859 180.776 286.86 183.807 290.551 183.807C294.241 183.807 297.242 180.776 297.242 177.053C297.242 173.331 294.241 170.32 290.551 170.32C286.86 170.32 283.859 173.331 283.859 177.053Z" fill="#E6E7E8"/>
<path d="M337.992 177.053C337.992 182.22 342.149 186.41 347.279 186.41C352.409 186.41 356.566 182.22 356.566 177.053C356.566 171.887 352.409 167.696 347.279 167.696C342.149 167.696 337.992 171.887 337.992 177.053Z" fill="#E6E7E8"/>
<path d="M353.808 148.392C353.808 144.731 350.929 141.822 347.279 141.822C343.629 141.822 340.75 144.731 340.75 148.392C340.75 152.054 343.69 154.963 347.279 154.963C350.868 154.963 353.808 151.993 353.808 148.392Z" fill="#E6E7E8"/>
<path d="M340.711 119.711C340.711 123.373 343.651 126.404 347.301 126.404C350.951 126.404 353.932 123.393 353.932 119.711C353.932 116.03 350.931 113.08 347.301 113.08C343.671 113.08 340.711 116.05 340.711 119.711Z" fill="#E6E7E8"/>
<path d="M366.633 177.033C366.633 182.098 370.668 186.146 375.697 186.146C380.725 186.146 384.7 182.078 384.7 177.033C384.7 171.988 380.665 167.961 375.697 167.961C370.729 167.961 366.633 172.029 366.633 177.033Z" fill="#E6E7E8"/>
<path d="M382.255 148.433C382.255 144.772 379.315 141.741 375.685 141.741C372.056 141.741 369.055 144.772 369.055 148.433C369.055 152.095 371.995 155.064 375.685 155.064C379.376 155.064 382.255 152.095 382.255 148.433Z" fill="#E6E7E8"/>
<path d="M369.289 119.711C369.289 123.251 372.168 126.159 375.697 126.159C379.225 126.159 382.043 123.251 382.043 119.711C382.043 116.172 379.225 113.324 375.697 113.324C372.168 113.324 369.289 116.172 369.289 119.711Z" fill="#E6E7E8"/>
<path d="M379.222 91.1318C379.222 89.1587 377.661 87.5314 375.694 87.5314C373.727 87.5314 372.125 89.1587 372.125 91.1318C372.125 93.1049 373.747 94.6712 375.694 94.6712C377.64 94.6712 379.222 93.1049 379.222 91.1318Z" fill="#E6E7E8"/>
<path d="M395.078 177.094C395.078 182.098 399.052 186.105 404.02 186.105C408.988 186.105 412.962 182.098 412.962 177.094C412.962 172.09 408.988 168.022 404.02 168.022C399.052 168.022 395.078 172.09 395.078 177.094Z" fill="#E6E7E8"/>
<path d="M397.102 148.413C397.102 152.278 400.204 155.39 404.036 155.39C407.869 155.39 410.971 152.278 410.971 148.413C410.971 144.548 407.869 141.436 404.036 141.436C400.204 141.436 397.102 144.548 397.102 148.413Z" fill="#ADAFB1"/>
<path d="M396.82 119.772C396.82 123.78 400.044 127.034 404.039 127.034C408.033 127.034 411.318 123.78 411.318 119.772C411.318 115.765 408.033 112.449 404.039 112.449C400.044 112.449 396.82 115.704 396.82 119.772Z" fill="#E6E7E8"/>
<path d="M397.914 91.0709C397.914 94.5085 400.631 97.2953 404.038 97.2953C407.444 97.2953 410.161 94.5085 410.161 91.0709C410.161 87.6332 407.444 84.9075 404.038 84.9075C400.631 84.9075 397.914 87.6942 397.914 91.0709Z" fill="#E6E7E8"/>
<path d="M407.673 62.471C407.673 60.4369 406.051 58.8096 404.044 58.8096C402.036 58.8096 400.414 60.4369 400.414 62.471C400.414 64.5051 402.077 66.0714 404.044 66.0714C406.011 66.0714 407.673 64.4441 407.673 62.471Z" fill="#E6E7E8"/>
<path d="M424.172 177.053C424.172 181.65 427.862 185.353 432.425 185.353C436.987 185.353 440.677 181.63 440.677 177.053C440.677 172.477 436.987 168.734 432.425 168.734C427.862 168.734 424.172 172.456 424.172 177.053Z" fill="#E6E7E8"/>
<path d="M424.297 148.372C424.297 152.908 427.926 156.57 432.428 156.57C436.929 156.57 440.518 152.908 440.518 148.372C440.518 143.836 436.889 140.236 432.428 140.236C427.967 140.236 424.297 143.897 424.297 148.372Z" fill="#D8DADB"/>
<path d="M425.391 119.772C425.391 123.658 428.574 126.811 432.427 126.811C436.279 126.811 439.402 123.678 439.402 119.772C439.402 115.867 436.279 112.694 432.427 112.694C428.574 112.694 425.391 115.887 425.391 119.772Z" fill="#E6E7E8"/>
<path d="M426.492 91.1116C426.492 94.4272 429.148 97.0512 432.433 97.0512C435.718 97.0512 438.314 94.4272 438.314 91.1116C438.314 87.7959 435.657 85.1923 432.433 85.1923C429.209 85.1923 426.492 87.8773 426.492 91.1116Z" fill="#E6E7E8"/>
<path d="M432.425 66.1529C434.452 66.1529 436.115 64.4646 436.115 62.4305C436.115 60.3963 434.452 58.708 432.425 58.708C430.397 58.708 428.734 60.3353 428.734 62.4305C428.734 64.5256 430.357 66.1529 432.425 66.1529Z" fill="#E6E7E8"/>
<path d="M453.305 177.053C453.305 181.243 456.65 184.6 460.746 184.6C464.842 184.6 468.249 181.223 468.249 177.053C468.249 172.883 464.903 169.507 460.746 169.507C456.59 169.507 453.305 172.883 453.305 177.053Z" fill="#E6E7E8"/>
<path d="M452.867 148.372C452.867 152.786 456.395 156.386 460.775 156.386C465.155 156.386 468.744 152.786 468.744 148.372C468.744 143.958 465.175 140.419 460.775 140.419C456.375 140.419 452.867 143.958 452.867 148.372Z" fill="#E6E7E8"/>
<path d="M455.281 119.711C455.281 122.803 457.715 125.305 460.776 125.305C463.838 125.305 466.312 122.803 466.312 119.711C466.312 116.619 463.838 114.199 460.776 114.199C457.715 114.199 455.281 116.701 455.281 119.711Z" fill="#D8DADB"/>
<path d="M460.761 97.5392C464.289 97.5392 467.209 94.7118 467.209 91.1521C467.209 87.5924 464.309 84.6632 460.761 84.6632C457.212 84.6632 454.414 87.5924 454.414 91.1521C454.414 94.7118 457.212 97.5392 460.761 97.5392Z" fill="#F5F5F6"/>
<path d="M482.125 177.033C482.125 180.918 485.308 184.112 489.161 184.112C493.014 184.112 496.136 180.918 496.136 177.033C496.136 173.148 493.014 169.995 489.161 169.995C485.308 169.995 482.125 173.127 482.125 177.033Z" fill="#E6E7E8"/>
<path d="M484.523 148.393C484.523 150.976 486.612 153.071 489.167 153.071C491.722 153.071 493.77 150.976 493.77 148.393C493.77 145.809 491.702 143.755 489.167 143.755C486.632 143.755 484.523 145.85 484.523 148.393Z" fill="#F7F7F8"/>
<path d="M496.096 119.752C496.096 115.908 492.973 112.775 489.161 112.775C485.349 112.775 482.227 115.908 482.227 119.752C482.227 123.597 485.288 126.729 489.161 126.729C493.034 126.729 496.096 123.637 496.096 119.752Z" fill="#E6E7E8"/>
<path d="M489.158 95.6069C491.632 95.6069 493.598 93.5728 493.598 91.0708C493.598 88.5688 491.632 86.5957 489.158 86.5957C486.684 86.5957 484.656 88.5688 484.656 91.0708C484.656 93.5728 486.684 95.6069 489.158 95.6069Z" fill="#D8DADB"/>
<path d="M489.187 67.8818C492.087 67.8818 494.48 65.3799 494.48 62.4304C494.48 59.4809 492.087 56.9993 489.187 56.9993C486.288 56.9993 483.773 59.3995 483.773 62.4304C483.773 65.4612 486.166 67.8818 489.187 67.8818Z" fill="#F5F5F6"/>
<path d="M511.141 177.074C511.141 180.572 513.979 183.461 517.487 183.461C520.995 183.461 523.895 180.552 523.895 177.074C523.895 173.595 521.016 170.625 517.487 170.625C513.959 170.625 511.141 173.473 511.141 177.074Z" fill="#D8DADB"/>
<path d="M510.453 148.413C510.453 152.359 513.576 155.512 517.489 155.512C521.403 155.512 524.586 152.379 524.586 148.413C524.586 144.446 521.403 141.314 517.489 141.314C513.576 141.314 510.453 144.446 510.453 148.413Z" fill="#E6E7E8"/>
<path d="M510.172 119.691C510.172 123.759 513.457 127.136 517.512 127.136C521.568 127.136 524.832 123.759 524.832 119.691C524.832 115.623 521.547 112.368 517.512 112.368C513.477 112.368 510.172 115.623 510.172 119.691Z" fill="#E6E7E8"/>
<path d="M517.508 95.3019C519.82 95.3019 521.665 93.4305 521.665 91.1116C521.665 88.7927 519.82 86.9213 517.508 86.9213C515.197 86.9213 513.352 88.7927 513.352 91.1116C513.352 93.4305 515.197 95.3019 517.508 95.3019Z" fill="#E6E7E8"/>
<path d="M517.509 66.4173C519.699 66.4173 521.463 64.6273 521.463 62.4304C521.463 60.2336 519.699 58.4639 517.509 58.4639C515.319 58.4639 513.555 60.2336 513.555 62.4304C513.555 64.6273 515.319 66.4173 517.509 66.4173Z" fill="#F5F5F6"/>
<path d="M540.883 177.053C540.883 179.901 543.134 182.118 545.912 182.118C548.689 182.118 550.94 179.901 550.94 177.053C550.94 174.206 548.689 171.988 545.912 171.988C543.134 171.988 540.883 174.246 540.883 177.053Z" fill="#E6E7E8"/>
<path d="M539.609 148.352C539.609 151.891 542.428 154.739 545.895 154.739C549.363 154.739 552.181 151.891 552.181 148.352C552.181 144.812 549.363 142.066 545.895 142.066C542.428 142.066 539.609 144.853 539.609 148.352Z" fill="#E6E7E8"/>
<path d="M539.836 119.752C539.836 123.129 542.553 125.854 545.899 125.854C549.244 125.854 551.962 123.129 551.962 119.752C551.962 116.375 549.244 113.65 545.899 113.65C542.553 113.65 539.836 116.375 539.836 119.752Z" fill="#D8DADB"/>
<path d="M545.905 87.6128C543.999 87.6128 542.438 89.1791 542.438 91.0911C542.438 93.0032 543.999 94.5898 545.905 94.5898C547.811 94.5898 549.372 93.0236 549.372 91.0911C549.372 89.1587 547.811 87.6128 545.905 87.6128Z" fill="#E6E7E8"/>
<path d="M545.919 65.7257C547.683 65.7257 549.143 64.2611 549.143 62.4711C549.143 60.6811 547.683 59.1351 545.919 59.1351C544.054 59.1351 542.594 60.5997 542.594 62.4711C542.594 64.3425 544.054 65.7257 545.919 65.7257Z" fill="#F5F5F6"/>
<path d="M567.961 177.114C567.961 180.613 570.779 183.4 574.247 183.4C577.714 183.4 580.533 180.613 580.533 177.114C580.533 173.616 577.694 170.727 574.247 170.727C570.8 170.727 567.961 173.636 567.961 177.114Z" fill="#D8DADB"/>
<path d="M568.18 148.413C568.18 151.789 570.897 154.515 574.243 154.515C577.588 154.515 580.305 151.789 580.305 148.413C580.305 145.036 577.588 142.31 574.243 142.31C570.897 142.31 568.18 145.036 568.18 148.413Z" fill="#E6E7E8"/>
<path d="M574.247 94.6712C576.214 94.6712 577.816 93.0439 577.816 91.0708C577.816 89.0977 576.194 87.5314 574.247 87.5314C572.3 87.5314 570.719 89.0977 570.719 91.0708C570.719 93.0439 572.28 94.6712 574.247 94.6712Z" fill="#D8DADB"/>
<path d="M574.221 64.5866C575.479 64.5866 576.391 63.6509 576.391 62.4914C576.391 61.2303 575.458 60.2946 574.221 60.2946C573.086 60.2946 572.133 61.2303 572.133 62.4914C572.133 63.6509 573.066 64.5866 574.221 64.5866Z" fill="#F5F5F6"/>
<path d="M602.627 122.356C604.066 122.356 605.222 121.196 605.222 119.732C605.222 118.267 604.066 117.128 602.627 117.128C601.187 117.128 600.031 118.288 600.031 119.732C600.031 121.176 601.187 122.356 602.627 122.356Z" fill="#E6E7E8"/>
<path d="M627.391 176.992C627.391 179.087 629.013 180.715 630.98 180.715C632.947 180.715 634.609 179.087 634.609 176.992C634.609 175.019 632.987 173.392 630.98 173.392C628.972 173.392 627.391 175.019 627.391 176.992Z" fill="#E6E7E8"/>
<path d="M630.98 152.766C633.393 152.766 635.299 150.793 635.299 148.413C635.299 146.033 633.393 144.06 630.98 144.06C628.567 144.06 626.641 146.033 626.641 148.413C626.641 150.793 628.607 152.766 630.98 152.766Z" fill="#E6E7E8"/>
<path d="M630.974 121.868C632.191 121.868 633.104 120.932 633.104 119.772C633.104 118.613 632.191 117.616 630.974 117.616C629.758 117.616 628.906 118.613 628.906 119.772C628.906 120.932 629.819 121.868 630.974 121.868Z" fill="#E6E7E8"/>
<path d="M659.362 179.982C660.984 179.982 662.241 178.64 662.241 177.013C662.241 175.385 660.964 174.104 659.362 174.104C657.76 174.104 656.422 175.446 656.422 177.013C656.422 178.579 657.74 179.982 659.362 179.982Z" fill="#E6E7E8"/>
<path d="M659.371 151.606C661.095 151.606 662.494 150.142 662.494 148.413C662.494 146.684 661.115 145.219 659.371 145.219C657.627 145.219 656.188 146.684 656.188 148.413C656.188 150.142 657.627 151.606 659.371 151.606Z" fill="#E6E7E8"/>
<path d="M687.697 179.677C689.157 179.677 690.293 178.518 690.293 177.053C690.293 175.69 689.157 174.429 687.697 174.429C686.339 174.429 685.203 175.69 685.203 177.053C685.203 178.518 686.359 179.677 687.697 179.677Z" fill="#F5F5F6"/>
<path d="M716.104 179.311C717.361 179.311 718.395 178.274 718.395 177.013C718.395 175.751 717.361 174.816 716.104 174.816C714.847 174.816 713.812 175.772 713.812 177.013C713.812 178.253 714.847 179.311 716.104 179.311Z" fill="#F5F5F6"/>
<path d="M687.718 146.826C686.886 146.826 686.156 147.457 686.156 148.291C686.156 149.226 686.886 149.959 687.718 149.959C688.65 149.959 689.279 149.226 689.279 148.291C689.279 147.457 688.65 146.826 687.718 146.826Z" fill="#F5F5F6"/>
<path d="M744.424 179.311C745.661 179.311 746.695 178.274 746.695 177.013C746.695 175.751 745.661 174.816 744.424 174.816C743.187 174.816 742.234 175.772 742.234 177.013C742.234 178.253 743.167 179.311 744.424 179.311Z" fill="#F5F5F6"/>
<path d="M598.617 148.555C598.617 150.752 600.483 152.522 602.673 152.522C604.863 152.522 606.627 150.732 606.627 148.555C606.627 148.474 606.485 148.474 606.464 148.392C606.464 148.311 606.627 148.331 606.627 148.23C606.627 146.135 604.863 144.263 602.673 144.263C600.483 144.263 598.719 146.155 598.719 148.23C598.719 148.291 598.82 148.27 598.82 148.331C598.82 148.433 598.617 148.433 598.617 148.535" fill="#F5F5F6"/>
<path d="M599.633 177.013C599.633 178.681 600.991 180.043 602.634 180.043C604.195 180.043 605.635 178.681 605.635 177.013C605.635 175.345 604.175 174.083 602.634 174.083C600.971 174.083 599.633 175.345 599.633 177.013Z" fill="#F5F5F6"/>
<path d="M574.304 122.03C575.52 122.03 576.555 121.034 576.555 119.772C576.555 118.511 575.52 117.453 574.304 117.453C573.087 117.453 571.992 118.491 571.992 119.772C571.992 121.054 573.026 122.03 574.304 122.03Z" fill="#E6E7E8"/>
<path d="M489.085 35.2137C489.916 35.2137 490.545 34.5831 490.545 33.7491C490.545 33.0168 489.916 32.2845 489.085 32.2845C488.355 32.2845 487.727 33.0168 487.727 33.7491C487.727 34.5831 488.355 35.2137 489.085 35.2137Z" fill="#F5F5F6"/>
<path d="M460.757 35.0713C461.487 35.0713 462.116 34.5424 462.116 33.8101C462.116 33.0778 461.487 32.4473 460.757 32.4473C460.027 32.4473 459.5 33.0778 459.5 33.8101C459.5 34.5424 460.027 35.0713 460.757 35.0713Z" fill="#F5F5F6"/>
<path d="M460.756 64.1186C461.689 64.1186 462.521 63.4881 462.521 62.4303C462.521 61.5963 461.689 60.7623 460.756 60.7623C459.824 60.7623 459.094 61.5963 459.094 62.4303C459.094 63.4881 459.824 64.1186 460.756 64.1186Z" fill="#F5F5F6"/>
<path d="M432.483 6.18689C433.314 6.18689 434.146 5.45461 434.146 4.49857C434.146 3.54253 433.314 2.72888 432.483 2.72888C431.449 2.72888 430.82 3.56287 430.82 4.49857C430.82 5.43427 431.449 6.18689 432.483 6.18689Z" fill="#F5F5F6"/>
<path d="M432.483 35.4375C433.314 35.4375 434.146 34.8069 434.146 33.7492C434.146 32.9152 433.314 32.0812 432.483 32.0812C431.449 32.0812 430.82 32.9152 430.82 33.7492C430.82 34.8069 431.449 35.4375 432.483 35.4375Z" fill="#F5F5F6"/>
<path d="M404.076 6.26824C405.111 6.26824 405.942 5.43424 405.942 4.47821C405.942 3.4408 405.111 2.60681 404.076 2.60681C403.042 2.60681 402.211 3.4408 402.211 4.47821C402.211 5.4139 403.042 6.26824 404.076 6.26824Z" fill="#F5F5F6"/>
<path d="M404.08 36.3123C405.54 36.3123 406.574 35.1528 406.574 33.6883C406.574 32.3254 405.54 31.1863 404.08 31.1863C402.62 31.1863 401.586 32.3457 401.586 33.6883C401.586 35.1528 402.62 36.3123 404.08 36.3123Z" fill="#F5F5F6"/>
<path d="M375.671 6.18689C376.705 6.18689 377.435 5.3529 377.435 4.49857C377.435 3.46117 376.705 2.72888 375.671 2.72888C374.839 2.72888 374.008 3.46117 374.008 4.49857C374.008 5.3529 374.839 6.18689 375.671 6.18689Z" fill="#F5F5F6"/>
<path d="M375.654 37.0037C377.519 37.0037 378.979 35.5392 378.979 33.7491C378.979 31.9591 377.519 30.5149 375.654 30.5149C373.991 30.5149 372.531 31.9795 372.531 33.7491C372.531 35.5188 373.991 37.0037 375.654 37.0037Z" fill="#F5F5F6"/>
<path d="M375.654 65.8477C377.519 65.8477 379.182 64.2814 379.182 62.3897C379.182 60.4979 377.519 59.0537 375.654 59.0537C373.788 59.0537 372.328 60.5183 372.328 62.3897C372.328 64.2611 373.788 65.8477 375.654 65.8477Z" fill="#F5F5F6"/>
<path d="M343.719 33.7493C343.719 35.7428 345.381 37.4107 347.348 37.4107C349.315 37.4107 350.978 35.7428 350.978 33.7493C350.978 31.7559 349.315 30.0879 347.348 30.0879C345.381 30.0879 343.719 31.6542 343.719 33.7493Z" fill="#F5F5F6"/>
<path d="M347.344 66.6817C349.737 66.6817 351.602 64.7899 351.602 62.3897C351.602 59.9894 349.737 58.2197 347.344 58.2197C344.951 58.2197 343.086 60.0911 343.086 62.3897C343.086 64.6882 344.951 66.6817 347.344 66.6817Z" fill="#F5F5F6"/>
<path d="M319.038 64.1187C319.869 64.1187 320.7 63.3864 320.7 62.4507C320.7 61.4133 319.869 60.7827 319.038 60.7827C318.003 60.7827 317.273 61.4133 317.273 62.4507C317.273 63.3864 318.003 64.1187 319.038 64.1187Z" fill="#F5F5F6"/>
<path d="M319.024 94.2441C320.687 94.2441 322.147 92.7795 322.147 91.1116C322.147 89.2402 320.687 87.979 319.024 87.979C317.26 87.979 315.922 89.2402 315.922 91.1116C315.922 92.7999 317.28 94.2441 319.024 94.2441Z" fill="#F5F5F6"/>
<path d="M319.035 123.617C321.124 123.617 322.787 121.827 322.787 119.732C322.787 117.637 321.124 115.867 319.035 115.867C316.947 115.867 315.203 117.535 315.203 119.732C315.203 121.929 316.967 123.617 319.035 123.617Z" fill="#F5F5F6"/>
<path d="M319.055 152.644C321.346 152.644 323.212 150.752 323.212 148.352C323.212 145.952 321.326 144.182 319.055 144.182C316.784 144.182 314.695 146.053 314.695 148.352C314.695 150.65 316.662 152.644 319.055 152.644Z" fill="#F5F5F6"/>
<path d="M319.02 181.406C321.393 181.406 323.299 179.494 323.299 177.053C323.299 174.612 321.393 172.7 319.02 172.7C316.648 172.7 314.641 174.612 314.641 177.053C314.641 179.494 316.608 181.406 319.02 181.406Z" fill="#E6E7E8"/>
<path d="M290.616 35.4171C291.549 35.4171 292.279 34.6849 292.279 33.7492C292.279 32.7118 291.549 32.0812 290.616 32.0812C289.683 32.0812 288.953 32.6914 288.953 33.7492C288.953 34.6849 289.683 35.4171 290.616 35.4171Z" fill="#F5F5F6"/>
<path d="M290.606 66.0511C292.593 66.0511 294.135 64.3628 294.135 62.4914C294.135 60.3962 292.573 58.83 290.606 58.83C288.639 58.83 287.078 60.3962 287.078 62.4914C287.078 64.3831 288.639 66.0511 290.606 66.0511Z" fill="#F5F5F6"/>
<path d="M290.612 96.6443C293.735 96.6443 296.128 94.1424 296.128 91.0912C296.128 88.04 293.735 85.5583 290.612 85.5583C287.49 85.5583 285.117 88.0603 285.117 91.0912C285.117 94.122 287.51 96.6443 290.612 96.6443Z" fill="#F5F5F6"/>
<path d="M290.609 125.183C293.529 125.183 296.003 122.783 296.003 119.732C296.003 116.68 293.509 114.301 290.609 114.301C287.71 114.301 285.195 116.803 285.195 119.732C285.195 122.661 287.689 125.183 290.609 125.183Z" fill="#F5F5F6"/>
<path d="M290.608 152.766C293.021 152.766 294.947 150.854 294.947 148.413C294.947 145.972 293.041 144.06 290.608 144.06C288.175 144.06 286.289 145.972 286.289 148.413C286.289 150.854 288.195 152.766 290.608 152.766Z" fill="#E6E7E8"/>
<path d="M262.221 36.0477C263.458 36.0477 264.492 35.0103 264.492 33.7491C264.492 32.488 263.458 31.4506 262.221 31.4506C260.984 31.4506 259.93 32.5083 259.93 33.7491C259.93 34.9899 260.964 36.0477 262.221 36.0477Z" fill="#F5F5F6"/>
<path d="M262.203 66.9868C264.697 66.9868 266.765 65.0137 266.765 62.4914C266.765 59.9691 264.677 57.8943 262.203 57.8943C259.729 57.8943 257.742 59.8877 257.742 62.4914C257.742 65.0951 259.709 66.9868 262.203 66.9868Z" fill="#F5F5F6"/>
<path d="M262.187 96.6443C265.31 96.6443 267.784 94.1424 267.784 91.0912C267.784 88.04 265.29 85.5583 262.187 85.5583C259.085 85.5583 256.773 88.0603 256.773 91.0912C256.773 94.122 259.166 96.6443 262.187 96.6443Z" fill="#F5F5F6"/>
<path d="M262.225 123.23C264.192 123.23 265.693 121.725 265.693 119.732C265.693 117.738 264.192 116.253 262.225 116.253C260.38 116.253 258.758 117.82 258.758 119.732C258.758 121.644 260.38 123.23 262.225 123.23Z" fill="#E6E7E8"/>
<path d="M257.375 148.413C257.375 151.078 259.565 153.295 262.221 153.295C264.878 153.295 267.128 151.098 267.128 148.413C267.128 145.728 264.938 143.531 262.221 143.531C259.504 143.531 257.375 145.667 257.375 148.413Z" fill="#E6E7E8"/>
<path d="M268.449 177.094C268.449 173.595 265.691 170.808 262.224 170.808C258.756 170.808 256.039 173.595 256.039 177.094C256.039 180.593 258.797 183.318 262.224 183.318C265.65 183.318 268.449 180.532 268.449 177.094Z" fill="#E6E7E8"/>
<path d="M233.877 64.7492C235.114 64.7492 236.169 63.7118 236.169 62.4507C236.169 61.1895 235.114 60.1521 233.877 60.1521C232.64 60.1521 231.586 61.2098 231.586 62.4507C231.586 63.6915 232.62 64.7492 233.877 64.7492Z" fill="#F5F5F6"/>
<path d="M233.86 86.6567C231.365 86.6567 229.5 88.6502 229.5 91.1522C229.5 93.4507 231.365 95.5459 233.86 95.5459C236.354 95.5459 238.32 93.4507 238.32 91.1522C238.32 88.6502 236.232 86.6567 233.86 86.6567Z" fill="#F5F5F6"/>
<path d="M233.909 126.119C237.437 126.119 240.235 123.19 240.235 119.732C240.235 116.274 237.437 113.365 233.909 113.365C230.381 113.365 227.461 116.172 227.461 119.732C227.461 123.291 230.381 126.119 233.909 126.119Z" fill="#F5F5F6"/>
<path d="M233.871 152.359C236 152.359 237.785 150.61 237.785 148.413C237.785 146.216 236 144.467 233.871 144.467C231.742 144.467 229.938 146.216 229.938 148.413C229.938 150.61 231.661 152.359 233.871 152.359Z" fill="#E6E7E8"/>
<path d="M228.969 177.053C228.969 179.718 231.159 181.935 233.876 181.935C236.593 181.935 238.783 179.738 238.783 177.053C238.783 174.368 236.593 172.171 233.876 172.171C231.159 172.171 228.969 174.307 228.969 177.053Z" fill="#E6E7E8"/>
<path d="M205.486 93.5525C206.845 93.5525 207.879 92.4134 207.879 91.1522C207.879 89.7893 206.825 88.6299 205.486 88.6299C204.148 88.6299 203.094 89.7893 203.094 91.1522C203.094 92.4134 204.148 93.5525 205.486 93.5525Z" fill="white"/>
<path d="M347.304 96.8069C350.427 96.8069 353.022 94.2846 353.022 91.1521C353.022 88.0195 350.427 85.3955 347.304 85.3955C344.182 85.3955 341.688 87.9178 341.688 91.1521C341.688 94.3863 344.182 96.8069 347.304 96.8069Z" fill="#F5F5F6"/>
<path d="M205.488 152.379C207.678 152.379 209.422 150.589 209.422 148.433C209.422 146.277 207.699 144.426 205.488 144.426C203.278 144.426 201.555 146.216 201.555 148.433C201.555 150.65 203.339 152.379 205.488 152.379Z" fill="#E6E7E8"/>
<path d="M205.489 181.467C207.902 181.467 209.93 179.494 209.93 177.053C209.93 174.612 207.902 172.639 205.489 172.639C203.076 172.639 201.109 174.612 201.109 177.053C201.109 179.494 203.076 181.467 205.489 181.467Z" fill="#E6E7E8"/>
<path d="M177.179 68.1463C180.302 68.1463 182.796 65.624 182.796 62.4914C182.796 59.3589 180.302 56.7349 177.179 56.7349C174.056 56.7349 171.359 59.2572 171.359 62.4914C171.359 65.7257 173.955 68.1463 177.179 68.1463Z" fill="white"/>
<path d="M177.139 95.6883C179.613 95.6883 181.701 93.5931 181.701 91.0911C181.701 88.5892 179.613 86.494 177.139 86.494C174.665 86.494 172.516 88.5281 172.516 91.0911C172.516 93.6541 174.543 95.6883 177.139 95.6883Z" fill="white"/>
<path d="M172.109 119.752C172.109 122.539 174.36 124.756 177.138 124.756C179.916 124.756 182.106 122.539 182.106 119.752C182.106 116.965 179.855 114.748 177.138 114.748C174.421 114.748 172.109 117.026 172.109 119.752Z" fill="white"/>
<path d="M171.195 148.413C171.195 151.667 173.852 154.332 177.136 154.332C180.421 154.332 183.017 151.667 183.017 148.413C183.017 145.158 180.361 142.493 177.136 142.493C173.912 142.493 171.195 145.158 171.195 148.413Z" fill="#E6E7E8"/>
<path d="M148.665 66.2546C150.855 66.2546 152.498 64.5866 152.498 62.4914C152.498 60.3963 150.835 58.6266 148.665 58.6266C146.496 58.6266 144.914 60.3963 144.914 62.4914C144.914 64.5866 146.577 66.2546 148.665 66.2546Z" fill="white"/>
<path d="M148.666 98.1088C152.498 98.1088 155.621 94.9763 155.621 91.1928C155.621 87.2263 152.498 84.0734 148.666 84.0734C144.834 84.0734 141.812 87.2059 141.812 91.1928C141.812 95.1797 144.915 98.1088 148.666 98.1088Z" fill="white"/>
<path d="M148.691 115.236C146.257 115.236 144.25 117.27 144.25 119.772C144.25 122.274 146.257 124.248 148.691 124.248C151.124 124.248 153.192 122.274 153.192 119.772C153.192 117.27 151.185 115.236 148.691 115.236Z" fill="white"/>
<path d="M143.539 148.392C143.539 151.301 145.851 153.62 148.669 153.62C151.488 153.62 153.86 151.301 153.86 148.392C153.86 145.484 151.548 143.165 148.669 143.165C145.79 143.165 143.539 145.484 143.539 148.392Z" fill="#E6E7E8"/>
<path d="M142.281 177.053C142.281 180.654 145.161 183.562 148.689 183.562C152.217 183.562 155.157 180.654 155.157 177.053C155.157 173.453 152.278 170.544 148.689 170.544C145.1 170.544 142.281 173.453 142.281 177.053Z" fill="#D8DADB"/>
<path d="M120.345 66.2546C122.433 66.2546 124.177 64.5866 124.177 62.4914C124.177 60.3963 122.413 58.6266 120.345 58.6266C118.277 58.6266 116.492 60.3963 116.492 62.4914C116.492 64.5866 118.256 66.2546 120.345 66.2546Z" fill="white"/>
<path d="M120.367 96.8071C123.489 96.8071 125.983 94.2848 125.983 91.1522C125.983 88.0197 123.489 85.3956 120.367 85.3956C117.244 85.3956 114.648 87.9179 114.648 91.1522C114.648 94.3865 117.244 96.8071 120.367 96.8071Z" fill="white"/>
<path d="M115.719 119.772C115.719 122.335 117.807 124.431 120.342 124.431C122.877 124.431 124.965 122.335 124.965 119.772C124.965 117.209 122.877 115.074 120.342 115.074C117.807 115.074 115.719 117.169 115.719 119.772Z" fill="#F5F5F6"/>
<path d="M115.156 148.392C115.156 151.301 117.468 153.62 120.347 153.62C123.226 153.62 125.538 151.301 125.538 148.392C125.538 145.484 123.226 143.165 120.347 143.165C117.468 143.165 115.156 145.484 115.156 148.392Z" fill="#D8DADB"/>
<path d="M113.875 177.053C113.875 180.654 116.754 183.562 120.343 183.562C123.932 183.562 126.812 180.654 126.812 177.053C126.812 173.453 123.932 170.544 120.343 170.544C116.754 170.544 113.875 173.453 113.875 177.053Z" fill="#D8DADB"/>
<path d="M91.9387 37.5734C94.1287 37.5734 95.7711 35.9054 95.7711 33.8103C95.7711 31.7151 94.1084 29.9454 91.9387 29.9454C89.7691 29.9454 88.1875 31.7151 88.1875 33.8103C88.1875 35.9054 89.8502 37.5734 91.9387 37.5734Z" fill="#F5F5F6"/>
<path d="M86.3203 62.4914C86.3203 65.624 88.8144 68.1463 91.937 68.1463C95.0597 68.1463 97.6552 65.624 97.6552 62.4914C97.6552 59.3589 95.1611 56.7349 91.937 56.7349C88.713 56.7349 86.3203 59.2572 86.3203 62.4914Z" fill="#F5F5F6"/>
<path d="M91.952 95.3833C94.3244 95.3833 96.2304 93.5322 96.2304 91.132C96.2304 88.7317 94.3244 86.84 91.952 86.84C89.5796 86.84 87.7344 88.752 87.7344 91.132C87.7344 93.5119 89.6404 95.3833 91.952 95.3833Z" fill="#F5F5F6"/>
<path d="M97.09 119.711C97.09 116.925 94.7784 114.606 91.9599 114.606C89.1414 114.606 86.8906 116.945 86.8906 119.711C86.8906 122.478 89.1414 124.878 91.9599 124.878C94.7784 124.878 97.09 122.62 97.09 119.711Z" fill="#E6E7E8"/>
<path d="M86.1797 148.433C86.1797 151.688 88.7751 154.251 91.9586 154.251C95.1421 154.251 97.7781 151.688 97.7781 148.433C97.7781 145.179 95.1827 142.575 91.9586 142.575C88.7346 142.575 86.1797 145.179 86.1797 148.433Z" fill="#E6E7E8"/>
<path d="M99.6216 177.094C99.6216 172.843 96.1543 169.364 91.9367 169.364C87.719 169.364 84.3125 172.863 84.3125 177.094C84.3125 181.325 87.719 184.763 91.9367 184.763C96.1543 184.763 99.6216 181.325 99.6216 177.094Z" fill="#D8DADB"/>
<path d="M63.6294 0.735352C61.5409 0.735352 59.8984 2.40333 59.8984 4.49848C59.8984 6.59363 61.5611 8.15991 63.6294 8.15991C65.6977 8.15991 67.259 6.59363 67.259 4.49848C67.259 2.40333 65.5963 0.735352 63.6294 0.735352Z" fill="#F5F5F6"/>
<path d="M63.604 27.0162C59.9744 27.0162 56.9531 30.0471 56.9531 33.8102C56.9531 37.5733 59.9541 40.5025 63.604 40.5025C67.2538 40.5025 70.2548 37.3699 70.2548 33.8102C70.2548 30.0471 67.2538 27.0162 63.604 27.0162Z" fill="#F5F5F6"/>
<path d="M63.6142 57.9958C61.181 57.9958 59.2344 59.969 59.2344 62.4709C59.2344 64.9729 61.2012 66.885 63.6142 66.885C66.0272 66.885 67.994 64.9119 67.994 62.4709C67.994 60.03 66.0272 57.9958 63.6142 57.9958Z" fill="#E6E7E8"/>
<path d="M68.5764 91.1115C68.5764 88.3858 66.3256 86.1075 63.6085 86.1075C60.8914 86.1075 58.6406 88.3858 58.6406 91.1115C58.6406 93.8372 60.8305 96.1154 63.6085 96.1154C66.3864 96.1154 68.5764 93.8982 68.5764 91.1115Z" fill="#E6E7E8"/>
<path d="M69.6725 119.752C69.6725 116.375 66.9554 113.65 63.6097 113.65C60.264 113.65 57.5469 116.375 57.5469 119.752C57.5469 123.129 60.264 125.854 63.6097 125.854C66.9554 125.854 69.6725 123.129 69.6725 119.752Z" fill="#E6E7E8"/>
<path d="M68.736 148.413C68.736 144.345 65.9378 141.029 62.5109 141.029C59.0841 141.029 56.2656 144.345 56.2656 148.413C56.2656 152.481 59.0639 155.797 62.5109 155.797C65.958 155.797 68.736 152.481 68.736 148.413Z" fill="#E6E7E8"/>
<path d="M71.8649 176.992C71.8649 172.456 68.1744 168.734 63.6121 168.734C59.0498 168.734 55.3594 172.456 55.3594 176.992C55.3594 181.528 59.0498 185.353 63.6121 185.353C68.1744 185.353 71.8649 181.63 71.8649 176.992Z" fill="#E6E7E8"/>
<path d="M35.1843 30.0267C33.2174 30.0267 31.5547 31.6947 31.5547 33.7899C31.5547 35.885 33.2174 37.4513 35.1843 37.4513C37.2728 37.4513 38.9355 35.885 38.9355 33.7899C38.9355 31.6947 37.2728 30.0267 35.1843 30.0267Z" fill="#E6E7E8"/>
<path d="M35.1751 67.8208C38.1964 67.8208 40.5891 65.4002 40.5891 62.471C40.5891 59.3385 38.1964 57.0399 35.1751 57.0399C32.1538 57.0399 29.8828 59.3385 29.8828 62.471C29.8828 65.4002 32.2755 67.8208 35.1751 67.8208Z" fill="#E6E7E8"/>
<path d="M35.208 86.6567C32.795 86.6567 30.8281 88.6298 30.8281 91.1318C30.8281 93.6338 32.795 95.5662 35.208 95.5662C37.6209 95.5662 39.6486 93.5931 39.6486 91.1318C39.6486 88.6705 37.6818 86.6567 35.208 86.6567Z" fill="#E6E7E8"/>
<path d="M40.1718 119.752C40.1718 117.026 37.9819 114.748 35.2039 114.748C32.426 114.748 30.2969 117.026 30.2969 119.752C30.2969 122.478 32.4868 124.756 35.2039 124.756C37.921 124.756 40.1718 122.539 40.1718 119.752Z" fill="#E6E7E8"/>
<path d="M40.7526 148.433C40.7526 145.341 38.2585 142.86 35.217 142.86C32.1754 142.86 29.7422 145.362 29.7422 148.433C29.7422 151.505 32.216 153.966 35.217 153.966C38.218 153.966 40.7526 151.464 40.7526 148.433Z" fill="#E6E7E8"/>
<path d="M42.5338 177.053C42.5338 172.985 39.2489 169.669 35.1935 169.669C31.1381 169.669 27.9141 172.985 27.9141 177.053C27.9141 181.122 31.1584 184.437 35.1935 184.437C39.2286 184.437 42.5338 181.122 42.5338 177.053Z" fill="#E6E7E8"/>
<path d="M6.87195 0.898071C4.90508 0.898071 3.34375 2.46435 3.34375 4.45779C3.34375 6.45123 4.90508 8.01751 6.87195 8.01751C8.83882 8.01751 10.4204 6.34953 10.4204 4.45779C10.4001 2.46435 8.83882 0.898071 6.87195 0.898071Z" fill="#E6E7E8"/>
<path d="M1.47656 33.79C1.47656 36.7191 3.86925 39.1397 6.87025 39.1397C9.87124 39.1397 12.2842 36.7191 12.2842 33.79C12.2842 30.6574 9.79014 28.3589 6.87025 28.3589C3.95036 28.3589 1.47656 30.6574 1.47656 33.79Z" fill="#F5F5F6"/>
<path d="M6.88072 66.336C9.03008 66.336 10.7536 64.5866 10.7536 62.4305C10.7536 60.2743 9.03008 58.5453 6.88072 58.5453C4.73136 58.5453 3.00781 60.2946 3.00781 62.4305C3.00781 64.5663 4.73136 66.336 6.88072 66.336Z" fill="#E6E7E8"/>
<path d="M11.4946 91.1115C11.4946 88.5485 9.40611 86.4534 6.87149 86.4534C4.33686 86.4534 2.1875 88.5485 2.1875 91.1115C2.1875 93.6745 4.27603 95.7697 6.87149 95.7697C9.46695 95.7697 11.4946 93.6745 11.4946 91.1115Z" fill="#E6E7E8"/>
<path d="M12.3464 119.772C12.3464 116.68 9.93339 114.199 6.87156 114.199C3.80973 114.199 1.33594 116.701 1.33594 119.772C1.33594 122.844 3.80973 125.305 6.87156 125.305C9.93339 125.305 12.3464 122.803 12.3464 119.772Z" fill="#E6E7E8"/>
<path d="M13.687 148.413C13.687 144.629 10.6252 141.497 6.8739 141.497C3.12266 141.497 0 144.629 0 148.413C0 152.196 3.06183 155.329 6.8739 155.329C10.686 155.329 13.687 152.196 13.687 148.413Z" fill="#E6E7E8"/>
<path d="M12.9925 177.033C12.9925 173.595 10.2754 170.849 6.84855 170.849C3.42174 170.849 0.664062 173.595 0.664062 177.033C0.664062 180.471 3.44201 183.257 6.84855 183.257C10.2551 183.257 12.9925 180.471 12.9925 177.033Z" fill="#ADAFB1"/>
<path d="M1172.28 66.6614C1174 66.6614 1175.34 65.2579 1175.34 63.5696C1175.34 61.8813 1174 60.498 1172.28 60.498C1170.56 60.498 1169.22 61.9016 1169.22 63.5696C1169.22 65.2376 1170.54 66.6614 1172.28 66.6614Z" fill="#D8DADB"/>
<path d="M1172.28 95.078C1173.9 95.078 1175.28 93.7355 1175.28 92.0472C1175.28 90.3589 1173.9 89.0164 1172.28 89.0164C1170.66 89.0164 1169.28 90.4199 1169.28 92.0472C1169.28 93.6745 1170.66 95.078 1172.28 95.078Z" fill="#E6E7E8"/>
<path d="M1172.27 125.102C1174.69 125.102 1176.61 123.19 1176.61 120.749C1176.61 118.308 1174.71 116.396 1172.27 116.396C1169.84 116.396 1167.95 118.308 1167.95 120.749C1167.95 123.19 1169.86 125.102 1172.27 125.102Z" fill="#E6E7E8"/>
<path d="M1140.41 92.0472C1140.41 94.0203 1142.04 95.5255 1143.88 95.5255C1145.85 95.5255 1147.35 94.0203 1147.35 92.0472C1147.35 90.0741 1145.85 88.5485 1143.88 88.5485C1142.04 88.5485 1140.41 90.1147 1140.41 92.0472Z" fill="#E6E7E8"/>
<path d="M1139.02 120.728C1139.02 123.393 1141.21 125.61 1143.87 125.61C1146.53 125.61 1148.78 123.393 1148.78 120.728C1148.78 118.064 1146.59 115.846 1143.87 115.846C1141.15 115.846 1139.02 118.003 1139.02 120.728Z" fill="#E6E7E8"/>
<path d="M1150.11 149.674C1150.11 146.196 1147.35 143.389 1143.89 143.389C1140.42 143.389 1137.7 146.175 1137.7 149.674C1137.7 153.173 1140.46 155.898 1143.89 155.898C1147.31 155.898 1150.11 153.112 1150.11 149.674Z" fill="#E6E7E8"/>
<path d="M1115.52 59.1351C1113.02 59.1351 1111.16 61.1286 1111.16 63.6305C1111.16 65.9291 1113.02 68.0243 1115.52 68.0243C1118.01 68.0243 1119.98 65.9291 1119.98 63.6305C1119.98 61.1286 1117.89 59.1351 1115.52 59.1351Z" fill="#F5F5F6"/>
<path d="M1111.95 92.0472C1111.95 93.9593 1113.58 95.5866 1115.54 95.5866C1117.51 95.5866 1119.05 93.9593 1119.05 92.0472C1119.05 90.1351 1117.49 88.5078 1115.54 88.5078C1113.6 88.5078 1111.95 90.0741 1111.95 92.0472Z" fill="#D8DADB"/>
<path d="M1111.6 120.728C1111.6 122.946 1113.33 124.675 1115.54 124.675C1117.75 124.675 1119.45 122.925 1119.45 120.728C1119.45 118.531 1117.66 116.782 1115.54 116.782C1113.41 116.782 1111.6 118.531 1111.6 120.728Z" fill="#E6E7E8"/>
<path d="M1110.63 149.633C1110.63 152.298 1112.82 154.515 1115.54 154.515C1118.26 154.515 1120.45 152.298 1120.45 149.633C1120.45 146.969 1118.26 144.751 1115.54 144.751C1112.82 144.751 1110.63 146.908 1110.63 149.633Z" fill="#E6E7E8"/>
<path d="M1121.7 178.437C1121.7 174.958 1118.93 172.212 1115.52 172.212C1112.11 172.212 1109.34 174.938 1109.34 178.437C1109.34 181.935 1112.11 184.6 1115.52 184.6C1118.93 184.6 1121.7 181.813 1121.7 178.437Z" fill="#E6E7E8"/>
<path d="M1083.22 92.0675C1083.22 94.2237 1085 96.0137 1087.15 96.0137C1089.3 96.0137 1091.09 94.2034 1091.09 92.0675C1091.09 89.9317 1089.36 88.0603 1087.15 88.0603C1084.94 88.0603 1083.22 89.8707 1083.22 92.0675Z" fill="#E6E7E8"/>
<path d="M1082.75 120.728C1082.75 123.169 1084.72 125.142 1087.13 125.142C1089.54 125.142 1091.57 123.169 1091.57 120.728C1091.57 118.287 1089.54 116.314 1087.13 116.314C1084.72 116.314 1082.75 118.287 1082.75 120.728Z" fill="#E6E7E8"/>
<path d="M1081.48 149.633C1081.48 152.766 1084.01 155.329 1087.13 155.329C1090.26 155.329 1092.79 152.766 1092.79 149.633C1092.79 146.501 1090.26 143.938 1087.13 143.938C1084.01 143.938 1081.48 146.501 1081.48 149.633Z" fill="#E6E7E8"/>
<path d="M1080.62 178.457C1080.62 182.057 1083.56 184.966 1087.15 184.966C1090.74 184.966 1093.68 182.057 1093.68 178.457C1093.68 174.857 1090.78 171.826 1087.15 171.826C1083.52 171.826 1080.62 174.796 1080.62 178.457Z" fill="#E6E7E8"/>
<path d="M1058.8 123.19C1060.16 123.19 1061.19 122.03 1061.19 120.789C1061.19 119.426 1060.14 118.287 1058.8 118.287C1057.46 118.287 1056.41 119.447 1056.41 120.789C1056.41 122.05 1057.46 123.19 1058.8 123.19Z" fill="#F5F5F6"/>
<path d="M1058.8 152.806C1060.53 152.806 1061.93 151.423 1061.93 149.674C1061.93 147.925 1060.55 146.48 1058.8 146.48C1057.06 146.48 1055.64 147.884 1055.64 149.674C1055.64 151.464 1057.08 152.806 1058.8 152.806Z" fill="#E6E7E8"/>
<path d="M1058.8 182.993C1061.28 182.993 1063.37 180.898 1063.37 178.396C1063.37 175.894 1061.28 173.799 1058.8 173.799C1056.33 173.799 1054.24 175.833 1054.24 178.396C1054.24 180.959 1056.25 182.993 1058.8 182.993Z" fill="#E6E7E8"/>
<path d="M1030.38 88.223C1028.31 88.223 1026.65 89.9927 1026.65 92.0879C1026.65 94.183 1028.31 95.851 1030.38 95.851C1032.57 95.851 1034.23 94.183 1034.23 92.0879C1034.23 89.9927 1032.57 88.223 1030.38 88.223Z" fill="#F5F5F6"/>
<path d="M1030.4 116.843C1028.33 116.843 1026.59 118.592 1026.59 120.789C1026.59 122.884 1028.31 124.634 1030.4 124.634C1032.49 124.634 1034.27 122.884 1034.27 120.789C1034.27 118.572 1032.55 116.843 1030.4 116.843Z" fill="#E6E7E8"/>
<path d="M1030.4 145.138C1027.99 145.138 1025.96 147.172 1025.96 149.674C1025.96 152.176 1027.99 154.149 1030.4 154.149C1032.81 154.149 1034.9 152.176 1034.9 149.674C1034.9 147.172 1032.88 145.138 1030.4 145.138Z" fill="#E6E7E8"/>
<path d="M1035.59 178.396C1035.59 175.487 1033.28 173.168 1030.4 173.168C1027.52 173.168 1025.27 175.487 1025.27 178.396C1025.27 181.305 1027.58 183.624 1030.4 183.624C1033.21 183.624 1035.59 181.305 1035.59 178.396Z" fill="#D8DADB"/>
<path d="M1002.05 116.925C999.983 116.925 998.219 118.694 998.219 120.789C998.219 122.885 999.983 124.553 1002.05 124.553C1004.12 124.553 1005.9 122.885 1005.9 120.789C1005.9 118.694 1004.14 116.925 1002.05 116.925Z" fill="#F5F5F6"/>
<path d="M1002.05 146.48C1000.33 146.48 998.891 147.884 998.891 149.674C998.891 151.464 1000.33 152.807 1002.05 152.807C1003.78 152.807 1005.18 151.423 1005.18 149.674C1005.18 147.925 1003.78 146.48 1002.05 146.48Z" fill="#E6E7E8"/>
<path d="M1006.67 178.436C1006.67 175.812 1004.58 173.738 1002.05 173.738C999.51 173.738 997.422 175.833 997.422 178.436C997.422 181.04 999.51 183.095 1002.05 183.095C1004.58 183.095 1006.67 180.999 1006.67 178.436Z" fill="#E6E7E8"/>
<path d="M973.642 88.223C971.553 88.223 969.891 90.0131 969.891 92.0879C969.891 94.1627 971.553 95.851 973.642 95.851C975.73 95.851 977.474 94.183 977.474 92.0879C977.474 89.9927 975.812 88.223 973.642 88.223Z" fill="#F5F5F6"/>
<path d="M973.64 115.033C970.538 115.033 968.023 117.535 968.023 120.789C968.023 124.044 970.518 126.444 973.64 126.444C976.763 126.444 979.358 123.942 979.358 120.789C979.358 117.637 976.864 115.033 973.64 115.033Z" fill="#F5F5F6"/>
<path d="M973.655 145.362C971.344 145.362 969.438 147.274 969.438 149.654C969.438 152.034 971.344 153.905 973.655 153.905C975.967 153.905 977.913 152.034 977.913 149.654C977.913 147.274 976.007 145.362 973.655 145.362Z" fill="#D8DADB"/>
<path d="M978.79 178.375C978.79 175.589 976.478 173.249 973.66 173.249C970.841 173.249 968.57 175.568 968.57 178.375C968.57 181.182 970.821 183.542 973.66 183.542C976.499 183.542 978.79 181.264 978.79 178.375Z" fill="#E6E7E8"/>
<path d="M945.333 174.694C943.264 174.694 941.602 176.362 941.602 178.457C941.602 180.552 943.264 182.118 945.333 182.118C947.401 182.118 948.982 180.552 948.982 178.457C948.982 176.362 947.299 174.694 945.333 174.694Z" fill="#F5F5F6"/>
<path d="M916.903 145.931C914.936 145.931 913.273 147.599 913.273 149.694C913.273 151.789 914.936 153.356 916.903 153.356C918.992 153.356 920.634 151.789 920.634 149.694C920.634 147.599 918.971 145.931 916.903 145.931Z" fill="#F5F5F6"/>
<path d="M916.902 183.786C919.903 183.786 922.295 181.386 922.295 178.457C922.295 175.324 919.903 173.026 916.902 173.026C913.901 173.026 911.609 175.324 911.609 178.457C911.609 181.386 914.002 183.786 916.902 183.786Z" fill="#F5F5F6"/>
<path d="M1135.11 178.436C1135.11 183.318 1139.02 187.265 1143.93 187.265C1148.84 187.265 1152.71 183.318 1152.71 178.436C1152.71 173.555 1148.8 169.547 1143.93 169.547C1139.06 169.547 1135.11 173.494 1135.11 178.436Z" fill="#D8DADB"/>
<path d="M1164.59 178.436C1164.59 182.728 1168 186.166 1172.28 186.166C1176.56 186.166 1180 182.728 1180 178.436C1180 174.144 1176.54 170.646 1172.28 170.646C1168.02 170.646 1164.59 174.124 1164.59 178.436Z" fill="#E6E7E8"/>
<path d="M1178.97 149.633C1178.97 145.911 1175.97 142.9 1172.28 142.9C1168.59 142.9 1165.59 145.911 1165.59 149.633C1165.59 153.356 1168.59 156.387 1172.28 156.387C1175.97 156.387 1178.97 153.356 1178.97 149.633Z" fill="#E6E7E8"/>
</g>
</g>
<defs>
<clipPath id="clip0_3441_57540">
<rect width="1180" height="186.529" fill="white" transform="translate(0 0.735352)"/>
</clipPath>
</defs>
</svg>
