<svg width="131" height="510" viewBox="0 0 131 510" fill="none" xmlns="http://www.w3.org/2000/svg">
<g clip-path="url(#clip0_3441_57712)">
<mask id="mask0_3441_57712" style="mask-type:luminance" maskUnits="userSpaceOnUse" x="-103" y="-22" width="234" height="532">
<path d="M130.879 -21.9754H-102.641V510H130.879V-21.9754Z" fill="white"/>
</mask>
<g mask="url(#mask0_3441_57712)">
<path d="M6.34237 112.342C9.55165 112.342 12.1231 109.775 12.1231 106.57C12.1231 103.366 9.53172 100.859 6.34237 100.859C3.15303 100.859 0.601562 103.426 0.601562 106.57C0.601562 109.715 3.1929 112.342 6.34237 112.342Z" fill="#E6E7E8"/>
<path d="M6.35783 182.197C3.72662 182.197 1.59375 184.327 1.59375 186.934C1.59375 189.541 3.72662 191.671 6.35783 191.671C8.98904 191.671 11.1219 189.541 11.1219 186.934C11.1219 184.327 8.98904 182.197 6.35783 182.197Z" fill="#E6E7E8"/>
<path d="M6.35577 220.548C2.70796 220.548 -0.242188 223.494 -0.242188 227.136C-0.242188 230.778 2.70796 233.723 6.35577 233.723C10.0036 233.723 12.9537 230.778 12.9537 227.136C12.9537 223.494 10.0036 220.548 6.35577 220.548Z" fill="#E6E7E8"/>
<path d="M26.5898 231.753C29.1811 231.753 31.2143 229.703 31.2143 227.136C31.2143 224.568 29.1612 222.518 26.5898 222.518C24.0184 222.518 21.9453 224.608 21.9453 227.136C21.9453 229.663 24.0383 231.753 26.5898 231.753Z" fill="#E6E7E8"/>
<path d="M46.8414 222.459C44.2501 222.459 42.1172 224.548 42.1172 227.116C42.1172 229.683 44.2501 231.813 46.8414 231.813C49.4327 231.813 51.5257 229.683 51.5257 227.116C51.5257 224.548 49.4327 222.459 46.8414 222.459Z" fill="#E6E7E8"/>
<path d="M6.37598 240.828C2.80791 240.828 -0.0625 243.694 -0.0625 247.256C-0.0625 250.819 2.80791 253.625 6.37598 253.625C9.94406 253.625 12.7746 250.759 12.7746 247.256C12.7746 243.754 9.90419 240.828 6.37598 240.828Z" fill="#E6E7E8"/>
<path d="M26.5672 251.893C29.1585 251.893 31.2914 249.804 31.2914 247.236C31.2914 244.669 29.1585 242.54 26.5672 242.54C23.9758 242.54 21.8828 244.629 21.8828 247.236C21.8828 249.844 23.9758 251.893 26.5672 251.893Z" fill="#E6E7E8"/>
<path d="M46.8382 242.699C44.3266 242.699 42.2734 244.749 42.2734 247.236C42.2734 249.724 44.3266 251.734 46.8382 251.734C49.3498 251.734 51.3431 249.724 51.3431 247.236C51.3431 244.749 49.3299 242.699 46.8382 242.699Z" fill="#E6E7E8"/>
<path d="M67.0272 249.724C68.4226 249.724 69.5588 248.63 69.5588 247.236C69.5588 245.843 68.4026 244.709 67.0272 244.709C65.6518 244.709 64.5156 245.863 64.5156 247.236C64.5156 248.61 65.612 249.724 67.0272 249.724Z" fill="#E6E7E8"/>
<path d="M6.31187 260.969C2.78366 260.969 -0.046875 263.795 -0.046875 267.297C-0.046875 270.8 2.78366 273.626 6.31187 273.626C9.84009 273.626 12.7105 270.8 12.7105 267.297C12.7105 263.795 9.84009 260.969 6.31187 260.969Z" fill="#E6E7E8"/>
<path d="M26.5876 262.402C23.8567 262.402 21.6641 264.591 21.6641 267.317C21.6641 270.044 23.8567 272.213 26.5876 272.213C29.3185 272.213 31.5112 270.024 31.5112 267.317C31.5112 264.611 29.3185 262.402 26.5876 262.402Z" fill="#ADAFB1"/>
<path d="M46.8069 262.203C43.9763 262.203 41.6641 264.491 41.6641 267.317C41.6641 270.143 43.9564 272.472 46.8069 272.472C49.6574 272.472 51.9696 270.143 51.9696 267.317C51.9696 264.491 49.6773 262.203 46.8069 262.203Z" fill="#E6E7E8"/>
<path d="M67.065 262.979C64.6332 262.979 62.6797 264.909 62.6797 267.317C62.6797 269.725 64.6531 271.656 67.065 271.656C69.477 271.656 71.4105 269.745 71.4105 267.317C71.4105 264.889 69.4371 262.979 67.065 262.979Z" fill="#E6E7E8"/>
<path d="M87.278 269.885C88.7132 269.885 89.8694 268.73 89.8694 267.317C89.8694 265.904 88.7132 264.75 87.278 264.75C85.8428 264.75 84.7266 265.944 84.7266 267.317C84.7266 268.691 85.8827 269.885 87.278 269.885Z" fill="#E6E7E8"/>
<path d="M6.34479 281.567C3.09565 281.567 0.484375 284.174 0.484375 287.418C0.484375 290.662 3.11558 293.269 6.34479 293.269C9.574 293.269 12.2251 290.662 12.2251 287.418C12.2251 284.174 9.59393 281.567 6.34479 281.567Z" fill="#E6E7E8"/>
<path d="M26.6088 281.667C23.3995 281.667 20.8281 284.234 20.8281 287.438C20.8281 290.642 23.4195 293.17 26.6088 293.17C29.7981 293.17 32.3496 290.602 32.3496 287.438C32.3496 284.274 29.7583 281.667 26.6088 281.667Z" fill="#D8DADB"/>
<path d="M46.8072 282.443C44.0564 282.443 41.8438 284.692 41.8438 287.438C41.8438 290.185 44.0564 292.394 46.8072 292.394C49.558 292.394 51.8104 290.185 51.8104 287.438C51.8104 284.692 49.558 282.443 46.8072 282.443Z" fill="#E6E7E8"/>
<path d="M67.0532 283.219C64.721 283.219 62.8672 285.09 62.8672 287.418C62.8672 289.747 64.721 291.578 67.0532 291.578C69.3854 291.578 71.2392 289.707 71.2392 287.418C71.2392 285.13 69.3455 283.219 67.0532 283.219Z" fill="#E6E7E8"/>
<path d="M84.6719 287.418C84.6719 288.851 85.8679 290.025 87.3031 290.025C88.7383 290.025 89.9343 288.831 89.9343 287.418C89.9343 286.005 88.7782 284.811 87.3031 284.811C85.828 284.811 84.6719 285.965 84.6719 287.418Z" fill="#E6E7E8"/>
<path d="M6.35777 302.225C3.40763 302.225 1.01562 304.593 1.01562 307.499C1.01562 310.405 3.3877 312.813 6.35777 312.813C9.32785 312.813 11.6999 310.445 11.6999 307.499C11.6999 304.554 9.32785 302.225 6.35777 302.225Z" fill="#E6E7E8"/>
<path d="M26.6064 301.887C23.4968 301.887 20.9453 304.375 20.9453 307.479C20.9453 310.584 23.4968 313.111 26.6064 313.111C29.716 313.111 32.2276 310.584 32.2276 307.479C32.2276 304.375 29.7359 301.887 26.6064 301.887Z" fill="#E6E7E8"/>
<path d="M46.8296 303.598C44.6569 303.598 42.8828 305.31 42.8828 307.479C42.8828 309.648 44.6569 311.4 46.8296 311.4C49.0024 311.4 50.7166 309.648 50.7166 307.479C50.7166 305.31 48.9426 303.598 46.8296 303.598Z" fill="#D8DADB"/>
<path d="M62.5156 307.479C62.5156 309.987 64.509 312.037 67.0206 312.037C69.5322 312.037 71.6053 309.967 71.6053 307.479C71.6053 304.991 69.5322 302.981 67.0206 302.981C64.509 302.981 62.5156 304.972 62.5156 307.479Z" fill="#F5F5F6"/>
<path d="M6.37828 322.624C3.62747 322.624 1.375 324.873 1.375 327.62C1.375 330.366 3.62747 332.575 6.37828 332.575C9.12909 332.575 11.3417 330.366 11.3417 327.62C11.3417 324.873 9.12909 322.624 6.37828 322.624Z" fill="#E6E7E8"/>
<path d="M26.5824 324.316C24.7684 324.316 23.2734 325.789 23.2734 327.6C23.2734 329.411 24.7485 330.864 26.5824 330.864C28.4163 330.864 29.8515 329.391 29.8515 327.6C29.8515 325.809 28.3764 324.316 26.5824 324.316Z" fill="#F7F7F8"/>
<path d="M46.8142 332.516C49.5251 332.516 51.7377 330.307 51.7377 327.62C51.7377 324.933 49.5251 322.724 46.8142 322.724C44.1032 322.724 41.8906 324.893 41.8906 327.62C41.8906 330.346 44.0634 332.516 46.8142 332.516Z" fill="#E6E7E8"/>
<path d="M63.8594 327.6C63.8594 329.351 65.2946 330.744 67.0687 330.744C68.8427 330.744 70.2381 329.351 70.2381 327.6C70.2381 325.849 68.8427 324.416 67.0687 324.416C65.2946 324.416 63.8594 325.849 63.8594 327.6Z" fill="#D8DADB"/>
<path d="M83.4531 327.62C83.4531 329.69 85.2272 331.381 87.3003 331.381C89.3733 331.381 91.1275 329.69 91.1275 327.62C91.1275 325.55 89.4331 323.799 87.3003 323.799C85.1674 323.799 83.4531 325.49 83.4531 327.62Z" fill="#F5F5F6"/>
<path d="M6.32526 343.183C3.85352 343.183 1.82031 345.193 1.82031 347.681C1.82031 350.169 3.87345 352.218 6.32526 352.218C8.77706 352.218 10.8701 350.169 10.8701 347.681C10.8701 345.193 8.8568 343.183 6.32526 343.183Z" fill="#D8DADB"/>
<path d="M26.5892 342.685C23.7985 342.685 21.5859 344.895 21.5859 347.681C21.5859 350.467 23.7985 352.716 26.5892 352.716C29.3799 352.716 31.5925 350.467 31.5925 347.681C31.5925 344.895 29.3799 342.685 26.5892 342.685Z" fill="#E6E7E8"/>
<path d="M46.864 342.487C43.9936 342.487 41.6016 344.815 41.6016 347.681C41.6016 350.547 43.9736 352.875 46.864 352.875C49.7543 352.875 52.0467 350.547 52.0467 347.681C52.0467 344.815 49.7543 342.487 46.864 342.487Z" fill="#E6E7E8"/>
<path d="M64.1016 347.681C64.1016 349.313 65.4172 350.626 67.0517 350.626C68.6862 350.626 70.0018 349.313 70.0018 347.681C70.0018 346.049 68.6862 344.735 67.0517 344.735C65.4172 344.735 64.1016 346.049 64.1016 347.681Z" fill="#E6E7E8"/>
<path d="M84.4922 347.681C84.4922 349.233 85.748 350.467 87.3028 350.467C88.8576 350.467 90.1134 349.213 90.1134 347.681C90.1134 346.148 88.8576 344.895 87.3028 344.895C85.748 344.895 84.4922 346.148 84.4922 347.681Z" fill="#F5F5F6"/>
<path d="M6.34933 364.219C4.33606 364.219 2.78125 365.811 2.78125 367.782C2.78125 369.752 4.33606 371.344 6.34933 371.344C8.3626 371.344 9.91741 369.752 9.91741 367.782C9.91741 365.811 8.32274 364.219 6.34933 364.219Z" fill="#E6E7E8"/>
<path d="M26.6221 363.324C24.1105 363.324 22.1172 365.334 22.1172 367.782C22.1172 370.23 24.1305 372.24 26.6221 372.24C29.1138 372.24 31.0473 370.23 31.0473 367.782C31.0473 365.334 29.0739 363.324 26.6221 363.324Z" fill="#E6E7E8"/>
<path d="M46.8291 363.483C44.457 363.483 42.5234 365.393 42.5234 367.782C42.5234 370.17 44.457 372.081 46.8291 372.081C49.2011 372.081 51.1347 370.17 51.1347 367.782C51.1347 365.393 49.2011 363.483 46.8291 363.483Z" fill="#D8DADB"/>
<path d="M69.5017 367.782C69.5017 366.428 68.3854 365.334 67.0499 365.334C65.7143 365.334 64.5781 366.428 64.5781 367.782C64.5781 369.135 65.6745 370.23 67.0499 370.23C68.4253 370.23 69.5017 369.115 69.5017 367.782Z" fill="#E6E7E8"/>
<path d="M84.9766 367.802C84.9766 369.055 86.0131 370.09 87.2689 370.09C88.5247 370.09 89.621 369.055 89.621 367.802C89.621 366.488 88.5845 365.453 87.2689 365.453C85.9533 365.453 84.9766 366.488 84.9766 367.802Z" fill="#F5F5F6"/>
<path d="M6.31584 383.405C3.8441 383.405 1.89062 385.415 1.89062 387.863C1.89062 390.311 3.86403 392.321 6.31584 392.321C8.76765 392.321 10.8208 390.311 10.8208 387.863C10.8208 385.415 8.76765 383.405 6.31584 383.405Z" fill="#D8DADB"/>
<path d="M26.5869 383.564C24.2148 383.564 22.2812 385.474 22.2812 387.863C22.2812 390.251 24.2148 392.161 26.5869 392.161C28.9589 392.161 30.8925 390.251 30.8925 387.863C30.8925 385.474 28.9589 383.564 26.5869 383.564Z" fill="#E6E7E8"/>
<path d="M64.5156 387.863C64.5156 389.256 65.6718 390.39 67.0671 390.39C68.4624 390.39 69.5588 389.236 69.5588 387.863C69.5588 386.489 68.4624 385.375 67.0671 385.375C65.6718 385.375 64.5156 386.469 64.5156 387.863Z" fill="#D8DADB"/>
<path d="M85.7656 387.843C85.7656 388.718 86.4234 389.395 87.2407 389.395C88.1178 389.395 88.7955 388.738 88.7955 387.843C88.7955 387.027 88.1377 386.37 87.2407 386.37C86.4234 386.37 85.7656 387.027 85.7656 387.843Z" fill="#F5F5F6"/>
<path d="M44.9844 407.963C44.9844 408.978 45.8016 409.794 46.8382 409.794C47.8747 409.794 48.692 408.978 48.692 407.963C48.692 406.948 47.8747 406.133 46.8382 406.133C45.8016 406.133 44.9844 406.948 44.9844 407.963Z" fill="#E6E7E8"/>
<path d="M6.39683 425.497C4.92176 425.497 3.76562 426.651 3.76562 428.024C3.76562 429.398 4.92176 430.592 6.39683 430.592C7.79217 430.592 8.9483 429.457 8.9483 428.024C8.9483 426.592 7.79217 425.497 6.39683 425.497Z" fill="#E6E7E8"/>
<path d="M23.5 428.044C23.5 429.756 24.8953 431.109 26.5697 431.109C28.2441 431.109 29.6395 429.756 29.6395 428.044C29.6395 426.333 28.2441 424.979 26.5697 424.979C24.8953 424.979 23.5 426.373 23.5 428.044Z" fill="#E6E7E8"/>
<path d="M45.3281 428.044C45.3281 428.9 45.9859 429.557 46.8032 429.557C47.6205 429.557 48.3181 428.9 48.3181 428.044C48.3181 427.189 47.6205 426.572 46.8032 426.572C45.9859 426.572 45.3281 427.228 45.3281 428.044Z" fill="#E6E7E8"/>
<path d="M4.28906 448.145C4.28906 449.3 5.22593 450.195 6.38207 450.195C7.5382 450.195 8.43521 449.3 8.43521 448.145C8.43521 446.991 7.49834 446.056 6.38207 446.056C5.2658 446.056 4.28906 446.991 4.28906 448.145Z" fill="#E6E7E8"/>
<path d="M24.3125 448.145C24.3125 449.379 25.349 450.354 26.565 450.354C27.7809 450.354 28.8174 449.379 28.8174 448.145C28.8174 446.911 27.7809 445.896 26.565 445.896C25.349 445.896 24.3125 446.911 24.3125 448.145Z" fill="#E6E7E8"/>
<path d="M4.5 468.206C4.5 469.241 5.31727 470.037 6.35381 470.037C7.31061 470.037 8.20761 469.221 8.20761 468.206C8.20761 467.251 7.31061 466.435 6.35381 466.435C5.31727 466.435 4.5 467.251 4.5 468.206Z" fill="#F5F5F6"/>
<path d="M4.76562 488.327C4.76562 489.203 5.50316 489.939 6.40016 489.939C7.29717 489.939 7.95496 489.203 7.95496 488.327C7.95496 487.451 7.27723 486.715 6.40016 486.715C5.52309 486.715 4.76562 487.451 4.76562 488.327Z" fill="#F5F5F6"/>
<path d="M27.6892 468.226C27.6892 467.629 27.2506 467.132 26.6526 467.132C25.9948 467.132 25.4766 467.649 25.4766 468.226C25.4766 468.883 25.9948 469.341 26.6526 469.341C27.2506 469.341 27.6892 468.903 27.6892 468.226Z" fill="#F5F5F6"/>
<path d="M4.76562 508.388C4.76562 509.264 5.50316 510 6.40016 510C7.29717 510 7.95496 509.264 7.95496 508.388C7.95496 507.512 7.27723 506.836 6.40016 506.836C5.52309 506.836 4.76562 507.492 4.76562 508.388Z" fill="#F5F5F6"/>
<path d="M26.4669 405.118C24.912 405.118 23.6562 406.431 23.6562 407.983C23.6562 409.536 24.912 410.77 26.4669 410.77C26.5267 410.77 26.5267 410.67 26.5865 410.65C26.6463 410.65 26.6263 410.77 26.7061 410.77C28.1811 410.77 29.5167 409.516 29.5167 407.983C29.5167 406.451 28.1811 405.177 26.7061 405.177C26.6662 405.177 26.6662 405.257 26.6263 405.257C26.5466 405.257 26.5665 405.118 26.4868 405.118" fill="#F5F5F6"/>
<path d="M6.3985 405.834C5.22243 405.834 4.26562 406.789 4.26562 407.963C4.26562 409.058 5.22243 410.093 6.3985 410.093C7.57457 410.093 8.47157 409.058 8.47157 407.963C8.47157 406.789 7.57457 405.834 6.3985 405.834Z" fill="#F5F5F6"/>
<path d="M45.2031 387.902C45.2031 388.758 45.9008 389.495 46.7978 389.495C47.6948 389.495 48.4323 388.758 48.4323 387.902C48.4323 387.047 47.6948 386.27 46.7978 386.27C45.9008 386.27 45.2031 387.007 45.2031 387.902Z" fill="#E6E7E8"/>
<path d="M106.516 327.54C106.516 328.137 106.954 328.575 107.552 328.575C108.07 328.575 108.589 328.137 108.589 327.54C108.589 327.023 108.07 326.585 107.552 326.585C106.954 326.585 106.516 327.023 106.516 327.54Z" fill="#F5F5F6"/>
<path d="M106.617 307.479C106.617 307.997 106.996 308.434 107.514 308.434C108.032 308.434 108.471 307.997 108.471 307.479C108.471 306.962 108.032 306.604 107.514 306.604C106.996 306.604 106.617 306.962 106.617 307.479Z" fill="#F5F5F6"/>
<path d="M86.1094 307.479C86.1094 308.136 86.5479 308.733 87.3054 308.733C87.9034 308.733 88.4814 308.136 88.4814 307.479C88.4814 306.822 87.8834 306.305 87.3054 306.305C86.5678 306.305 86.1094 306.822 86.1094 307.479Z" fill="#F5F5F6"/>
<path d="M127.031 287.458C127.031 288.055 127.55 288.632 128.227 288.632C128.905 288.632 129.483 288.035 129.483 287.458C129.483 286.722 128.885 286.284 128.227 286.284C127.569 286.284 127.031 286.722 127.031 287.458Z" fill="#F5F5F6"/>
<path d="M106.359 287.458C106.359 288.055 106.798 288.632 107.555 288.632C108.153 288.632 108.731 288.035 108.731 287.458C108.731 286.722 108.133 286.284 107.555 286.284C106.818 286.284 106.359 286.722 106.359 287.458Z" fill="#F5F5F6"/>
<path d="M126.953 267.357C126.953 268.094 127.551 268.671 128.209 268.671C128.946 268.671 129.525 268.074 129.525 267.357C129.525 266.641 128.946 266.044 128.209 266.044C127.551 266.044 126.953 266.641 126.953 267.357Z" fill="#F5F5F6"/>
<path d="M105.75 267.357C105.75 268.392 106.567 269.128 107.604 269.128C108.561 269.128 109.378 268.392 109.378 267.357C109.378 266.322 108.561 265.586 107.604 265.586C106.567 265.586 105.75 266.322 105.75 267.357Z" fill="#F5F5F6"/>
<path d="M127.031 247.216C127.031 247.953 127.629 248.47 128.227 248.47C128.965 248.47 129.483 247.953 129.483 247.216C129.483 246.619 128.965 246.042 128.227 246.042C127.629 246.042 127.031 246.639 127.031 247.216Z" fill="#F5F5F6"/>
<path d="M105.258 247.197C105.258 248.53 106.294 249.545 107.55 249.545C108.806 249.545 109.842 248.51 109.842 247.197C109.842 246.022 108.806 244.988 107.55 244.988C106.294 244.988 105.258 246.022 105.258 247.197Z" fill="#F5F5F6"/>
<path d="M84.8906 247.217C84.8906 248.53 86.0069 249.724 87.3424 249.724C88.678 249.724 89.6946 248.55 89.6946 247.217C89.6946 245.883 88.658 244.868 87.3424 244.868C86.0268 244.868 84.8906 245.903 84.8906 247.217Z" fill="#F5F5F6"/>
<path d="M107.56 224.588C106.145 224.588 104.969 225.762 104.969 227.155C104.969 228.549 106.145 229.723 107.56 229.723C108.975 229.723 110.131 228.549 110.131 227.155C110.131 225.762 109.035 224.588 107.56 224.588Z" fill="#F5F5F6"/>
<path d="M84.2969 227.175C84.2969 228.867 85.6324 230.2 87.3268 230.2C89.0211 230.2 90.2769 228.887 90.2769 227.175C90.2769 225.464 88.9613 224.17 87.3268 224.17C85.6922 224.17 84.2969 225.484 84.2969 227.175Z" fill="#F5F5F6"/>
<path d="M86.1094 207.114C86.1094 207.711 86.6276 208.289 87.2854 208.289C88.023 208.289 88.4615 207.692 88.4615 207.114C88.4615 206.378 88.023 205.861 87.2854 205.861C86.6276 205.861 86.1094 206.378 86.1094 207.114Z" fill="#F5F5F6"/>
<path d="M64.8438 207.094C64.8438 208.269 65.8803 209.304 67.0564 209.304C68.372 209.304 69.269 208.269 69.269 207.094C69.269 205.841 68.372 204.885 67.0564 204.885C65.8604 204.885 64.8438 205.841 64.8438 207.094Z" fill="#F5F5F6"/>
<path d="M44.0938 207.114C44.0938 208.587 45.3496 209.761 46.8246 209.761C48.2997 209.761 49.5555 208.587 49.5555 207.114C49.5555 205.642 48.3794 204.388 46.8246 204.388C45.2698 204.388 44.0938 205.642 44.0938 207.114Z" fill="#F5F5F6"/>
<path d="M23.6016 207.134C23.6016 208.746 24.9371 210.08 26.6314 210.08C28.3258 210.08 29.5816 208.746 29.5816 207.134C29.5816 205.522 28.266 204.049 26.6314 204.049C24.9969 204.049 23.6016 205.443 23.6016 207.134Z" fill="#F5F5F6"/>
<path d="M3.25781 207.094C3.25781 208.766 4.61328 210.12 6.32755 210.12C8.04182 210.12 9.39729 208.766 9.39729 207.094C9.39729 205.423 8.04182 203.99 6.32755 203.99C4.61328 203.99 3.25781 205.383 3.25781 207.094Z" fill="#E6E7E8"/>
<path d="M106.383 186.994C106.383 187.65 106.901 188.168 107.559 188.168C108.296 188.168 108.735 187.65 108.735 186.994C108.735 186.337 108.296 185.819 107.559 185.819C106.901 185.819 106.383 186.337 106.383 186.994Z" fill="#F5F5F6"/>
<path d="M84.7578 186.994C84.7578 188.387 85.9339 189.501 87.2694 189.501C88.7445 189.501 89.8408 188.407 89.8408 186.994C89.8408 185.581 88.7445 184.486 87.2694 184.486C85.9339 184.486 84.7578 185.601 84.7578 186.994Z" fill="#F5F5F6"/>
<path d="M63.125 186.994C63.125 189.203 64.8991 190.894 67.0519 190.894C69.2047 190.894 70.9588 189.203 70.9588 186.994C70.9588 184.785 69.1847 183.093 67.0519 183.093C64.919 183.093 63.125 184.785 63.125 186.994Z" fill="#F5F5F6"/>
<path d="M43 186.994C43 189.063 44.6943 190.815 46.8471 190.815C49 190.815 50.6744 189.063 50.6744 186.994C50.6744 184.924 48.9003 183.173 46.8471 183.173C44.794 183.173 43 184.944 43 186.994Z" fill="#F5F5F6"/>
<path d="M23.5 186.994C23.5 188.705 24.8555 190.059 26.5697 190.059C28.284 190.059 29.6395 188.705 29.6395 186.994C29.6395 185.282 28.284 183.929 26.5697 183.929C24.8555 183.929 23.5 185.282 23.5 186.994Z" fill="#E6E7E8"/>
<path d="M105.922 166.873C105.922 167.749 106.659 168.485 107.556 168.485C108.453 168.485 109.191 167.749 109.191 166.873C109.191 165.997 108.453 165.261 107.556 165.261C106.659 165.261 105.922 165.997 105.922 166.873Z" fill="#F5F5F6"/>
<path d="M84.0781 166.873C84.0781 168.624 85.4735 170.097 87.2475 170.097C89.0216 170.097 90.4967 168.624 90.4967 166.873C90.4967 165.122 89.1013 163.709 87.2475 163.709C85.3937 163.709 84.0781 165.102 84.0781 166.873Z" fill="#F5F5F6"/>
<path d="M63.125 166.853C63.125 169.062 64.8991 170.813 67.0519 170.813C69.2047 170.813 70.9588 169.062 70.9588 166.853C70.9588 164.644 69.1847 163.032 67.0519 163.032C64.919 163.032 63.125 164.724 63.125 166.853Z" fill="#F5F5F6"/>
<path d="M44.375 166.873C44.375 168.266 45.4514 169.321 46.8467 169.321C48.2421 169.321 49.2986 168.266 49.2986 166.873C49.2986 165.559 48.1823 164.425 46.8467 164.425C45.5112 164.425 44.375 165.559 44.375 166.873Z" fill="#E6E7E8"/>
<path d="M26.5891 163.45C24.6954 163.45 23.1406 165.002 23.1406 166.893C23.1406 168.783 24.6954 170.356 26.5891 170.356C28.4828 170.356 30.0376 168.803 30.0376 166.893C30.0376 164.982 28.5226 163.45 26.5891 163.45Z" fill="#E6E7E8"/>
<path d="M6.33847 171.291C8.81021 171.291 10.7637 169.341 10.7637 166.873C10.7637 164.405 8.79027 162.495 6.33847 162.495C3.88666 162.495 1.95312 164.445 1.95312 166.873C1.95312 169.301 3.92652 171.291 6.33847 171.291Z" fill="#E6E7E8"/>
<path d="M85.6719 146.812C85.6719 147.688 86.4094 148.424 87.3064 148.424C88.2034 148.424 88.941 147.688 88.941 146.812C88.941 145.936 88.2034 145.2 87.3064 145.2C86.4094 145.2 85.6719 145.936 85.6719 146.812Z" fill="#F5F5F6"/>
<path d="M70.1853 146.792C70.1853 145.021 68.7899 143.707 67.0159 143.707C65.3813 143.707 63.9062 145.021 63.9062 146.792C63.9062 148.563 65.3813 149.956 67.0159 149.956C68.7899 149.956 70.1853 148.484 70.1853 146.792Z" fill="#F5F5F6"/>
<path d="M42.3125 146.832C42.3125 149.339 44.3856 151.31 46.8175 151.31C49.2493 151.31 51.3224 149.339 51.3224 146.832C51.3224 144.324 49.3291 142.254 46.8175 142.254C44.3058 142.254 42.3125 144.324 42.3125 146.832Z" fill="#F5F5F6"/>
<path d="M23.7969 146.812C23.7969 148.324 25.0327 149.598 26.5876 149.598C28.1424 149.598 29.3782 148.324 29.3782 146.812C29.3782 145.299 28.1424 144.026 26.5876 144.026C25.0327 144.026 23.7969 145.26 23.7969 146.812Z" fill="#E6E7E8"/>
<path d="M6.36254 143.329C4.46887 143.329 2.91406 144.881 2.91406 146.812C2.91406 148.742 4.46887 150.295 6.36254 150.295C8.25621 150.295 9.81101 148.742 9.81101 146.812C9.81101 144.881 8.29608 143.329 6.36254 143.329Z" fill="#E6E7E8"/>
<path d="M65.3203 126.691C65.3203 127.646 66.1376 128.383 67.0146 128.383C67.9715 128.383 68.7887 127.646 68.7887 126.691C68.7887 125.736 67.9715 124.999 67.0146 124.999C66.1176 124.999 65.3203 125.736 65.3203 126.691Z" fill="white"/>
<path d="M63.0312 227.136C63.0312 229.345 64.8053 231.176 67.0179 231.176C69.2305 231.176 71.0843 229.345 71.0843 227.136C71.0843 224.926 69.3103 223.155 67.0179 223.155C64.7256 223.155 63.0312 224.926 63.0312 227.136Z" fill="#F5F5F6"/>
<path d="M23.7812 126.691C23.7812 128.243 25.057 129.477 26.5719 129.477C28.0869 129.477 29.4025 128.243 29.4025 126.691C29.4025 125.139 28.1267 123.905 26.5719 123.905C25.0171 123.905 23.7812 125.179 23.7812 126.691Z" fill="#E6E7E8"/>
<path d="M3.22656 126.691C3.22656 128.403 4.6219 129.836 6.3561 129.836C8.09031 129.836 9.46572 128.403 9.46572 126.691C9.46572 124.98 8.07038 123.586 6.3561 123.586C4.64183 123.586 3.22656 124.98 3.22656 126.691Z" fill="#E6E7E8"/>
<path d="M83.2578 106.65C83.2578 108.859 85.0319 110.63 87.2445 110.63C89.4571 110.63 91.3109 108.859 91.3109 106.65C91.3109 104.441 89.5368 102.53 87.2445 102.53C84.9522 102.53 83.2578 104.361 83.2578 106.65Z" fill="white"/>
<path d="M63.8047 106.63C63.8047 108.382 65.2798 109.854 67.0538 109.854C68.8279 109.854 70.303 108.382 70.303 106.63C70.303 104.879 68.8678 103.366 67.0538 103.366C65.2399 103.366 63.8047 104.799 63.8047 106.63Z" fill="white"/>
<path d="M46.8251 103.068C44.8517 103.068 43.2969 104.66 43.2969 106.63C43.2969 108.6 44.8517 110.153 46.8251 110.153C48.7985 110.153 50.3533 108.561 50.3533 106.63C50.3533 104.7 48.7586 103.068 46.8251 103.068Z" fill="white"/>
<path d="M26.5845 102.411C24.2921 102.411 22.3984 104.282 22.3984 106.63C22.3984 108.979 24.2921 110.79 26.5845 110.79C28.8768 110.79 30.7705 108.919 30.7705 106.63C30.7705 104.341 28.8768 102.411 26.5845 102.411Z" fill="#E6E7E8"/>
<path d="M84.5938 86.4497C84.5938 88.002 85.7698 89.1762 87.2449 89.1762C88.72 89.1762 89.9758 88.002 89.9758 86.4497C89.9758 84.8973 88.72 83.8027 87.2449 83.8027C85.7698 83.8027 84.5938 84.9769 84.5938 86.4497Z" fill="white"/>
<path d="M62.1094 86.4497C62.1094 89.1762 64.322 91.3853 66.9931 91.3853C69.8037 91.3853 72.0163 89.1762 72.0163 86.4497C72.0163 83.7231 69.8037 81.5936 66.9931 81.5936C64.1824 81.5936 62.1094 83.8027 62.1094 86.4497Z" fill="white"/>
<path d="M50.0072 86.4696C50.0072 84.758 48.572 83.3251 46.8179 83.3251C45.0637 83.3251 43.6484 84.758 43.6484 86.4696C43.6484 88.1811 45.0438 89.6539 46.8179 89.6539C48.5919 89.6539 50.0072 88.221 50.0072 86.4696Z" fill="white"/>
<path d="M26.5939 82.8276C24.5408 82.8276 22.9062 84.4595 22.9062 86.4696C22.9062 88.4797 24.5408 90.1514 26.5939 90.1514C28.6471 90.1514 30.2816 88.5195 30.2816 86.4696C30.2816 84.4197 28.6471 82.8276 26.5939 82.8276Z" fill="#E6E7E8"/>
<path d="M6.35462 81.932C3.82308 81.932 1.75 83.9819 1.75 86.4696C1.75 88.9573 3.80314 91.047 6.35462 91.047C8.90609 91.047 10.9592 88.9971 10.9592 86.4696C10.9592 83.9421 8.90609 81.932 6.35462 81.932Z" fill="#D8DADB"/>
<path d="M84.5938 66.4086C84.5938 67.8813 85.7698 69.1351 87.2449 69.1351C88.72 69.1351 89.9758 67.8813 89.9758 66.4086C89.9758 64.9358 88.72 63.682 87.2449 63.682C85.7698 63.682 84.5938 64.9358 84.5938 66.4086Z" fill="white"/>
<path d="M63.0312 66.4086C63.0312 68.6177 64.8053 70.3889 67.0179 70.3889C69.2305 70.3889 71.0843 68.6177 71.0843 66.4086C71.0843 64.1995 69.3103 62.3685 67.0179 62.3685C64.7256 62.3685 63.0312 64.2194 63.0312 66.4086Z" fill="white"/>
<path d="M46.8046 63.1248C44.9907 63.1248 43.5156 64.5975 43.5156 66.3887C43.5156 68.1798 44.9907 69.6526 46.8046 69.6526C48.6186 69.6526 50.1335 68.1798 50.1335 66.3887C50.1335 64.5975 48.6584 63.1248 46.8046 63.1248Z" fill="#F5F5F6"/>
<path d="M26.5939 62.7267C24.5408 62.7267 22.9062 64.3587 22.9062 66.4086C22.9062 68.4584 24.5408 70.0904 26.5939 70.0904C28.6471 70.0904 30.2816 68.4584 30.2816 66.4086C30.2816 64.3587 28.6471 62.7267 26.5939 62.7267Z" fill="#D8DADB"/>
<path d="M6.35462 61.8311C3.82308 61.8311 1.75 63.881 1.75 66.4086C1.75 68.9361 3.80314 70.986 6.35462 70.986C8.90609 70.986 10.9592 68.9361 10.9592 66.4086C10.9592 63.881 8.90609 61.8311 6.35462 61.8311Z" fill="#D8DADB"/>
<path d="M104.867 46.2679C104.867 47.8203 106.043 48.9945 107.518 48.9945C108.993 48.9945 110.249 47.8203 110.249 46.2679C110.249 44.7156 108.993 43.621 107.518 43.621C106.043 43.621 104.867 44.7952 104.867 46.2679Z" fill="#F5F5F6"/>
<path d="M87.2601 42.3075C85.0475 42.3075 83.2734 44.0787 83.2734 46.2878C83.2734 48.4969 85.0475 50.3279 87.2601 50.3279C89.4727 50.3279 91.3265 48.5566 91.3265 46.2878C91.3265 44.019 89.5525 42.3075 87.2601 42.3075Z" fill="#F5F5F6"/>
<path d="M64.0391 46.2878C64.0391 47.9596 65.3547 49.3129 67.0291 49.3129C68.7035 49.3129 70.0589 47.9596 70.0589 46.2878C70.0589 44.6161 68.7035 43.3026 67.0291 43.3026C65.3547 43.3026 64.0391 44.6559 64.0391 46.2878Z" fill="#F5F5F6"/>
<path d="M46.8431 49.9299C48.8165 49.9299 50.4511 48.2979 50.4511 46.2878C50.4511 44.2777 48.7966 42.6856 46.8431 42.6856C44.8896 42.6856 43.1953 44.2777 43.1953 46.2878C43.1953 48.2979 44.79 49.9299 46.8431 49.9299Z" fill="#E6E7E8"/>
<path d="M26.5672 42.208C24.2749 42.208 22.4609 44.0389 22.4609 46.2878C22.4609 48.5368 24.2749 50.4075 26.5672 50.4075C28.8596 50.4075 30.7134 48.5766 30.7134 46.2878C30.7134 43.9991 28.8596 42.208 26.5672 42.208Z" fill="#E6E7E8"/>
<path d="M6.33594 51.721C9.32595 51.721 11.7977 49.2731 11.7977 46.2878C11.7977 43.3026 9.32595 40.8945 6.33594 40.8945C3.34593 40.8945 0.914062 43.3026 0.914062 46.2878C0.914062 49.2731 3.326 51.721 6.33594 51.721Z" fill="#D8DADB"/>
<path d="M130.887 26.2268C130.887 24.7541 129.711 23.5799 128.216 23.5799C126.721 23.5799 125.625 24.7541 125.625 26.2268C125.625 27.6996 126.741 28.7942 128.216 28.7942C129.691 28.7942 130.887 27.6199 130.887 26.2268Z" fill="#F5F5F6"/>
<path d="M112.317 26.2268C112.317 23.6595 110.184 21.5101 107.513 21.5101C104.842 21.5101 102.789 23.6396 102.789 26.2268C102.789 28.814 105.002 30.9435 107.513 30.9435C110.164 30.9435 112.317 28.814 112.317 26.2268Z" fill="#F5F5F6"/>
<path d="M90.4318 26.2268C90.4318 24.5153 89.0364 23.1221 87.2624 23.1221C85.4883 23.1221 84.1328 24.5153 84.1328 26.2268C84.1328 27.9384 85.5281 29.3315 87.2624 29.3315C88.9966 29.3315 90.4318 27.9384 90.4318 26.2268Z" fill="#E6E7E8"/>
<path d="M67.0516 29.7295C68.9852 29.7295 70.5799 28.1374 70.5799 26.2069C70.5799 24.2764 68.9852 22.6843 67.0516 22.6843C65.1181 22.6843 63.5234 24.2366 63.5234 26.2069C63.5234 28.1772 65.0782 29.7295 67.0516 29.7295Z" fill="#E6E7E8"/>
<path d="M46.8291 30.5057C49.2011 30.5057 51.1347 28.5951 51.1347 26.2069C51.1347 23.8187 49.2011 21.9081 46.8291 21.9081C44.457 21.9081 42.5234 23.8386 42.5234 26.2069C42.5234 28.5752 44.457 30.5057 46.8291 30.5057Z" fill="#E6E7E8"/>
<path d="M26.5932 29.8688C29.4636 29.8688 31.8158 27.8986 31.8158 25.4506C31.8158 23.0027 29.4836 21.0324 26.5932 21.0324C23.7029 21.0324 21.3906 23.0027 21.3906 25.4506C21.3906 27.8986 23.7228 29.8688 26.5932 29.8688Z" fill="#E6E7E8"/>
<path d="M6.38466 32.0779C9.59393 32.0779 12.2251 29.4708 12.2251 26.2268C12.2251 22.9828 9.59393 20.3757 6.38466 20.3757C3.17538 20.3757 0.484375 23.0027 0.484375 26.2268C0.484375 29.4509 3.11558 32.0779 6.38466 32.0779Z" fill="#E6E7E8"/>
<path d="M110.192 6.08619C110.192 4.69307 109.016 3.51886 107.521 3.51886C106.026 3.51886 104.93 4.69307 104.93 6.08619C104.93 7.55893 106.046 8.73313 107.521 8.73313C108.996 8.73313 110.192 7.55893 110.192 6.08619Z" fill="#E6E7E8"/>
<path d="M83.5 6.08618C83.5 8.23558 85.1943 9.90733 87.2674 9.90733C89.48 9.90733 91.0946 8.21567 91.0946 6.08618C91.0946 3.95669 89.4601 2.32474 87.2674 2.32474C85.1943 2.32474 83.5 4.01639 83.5 6.08618Z" fill="#E6E7E8"/>
<path d="M70.2052 6.10609C70.2052 4.39453 68.8099 3.0014 67.0358 3.0014C65.2617 3.0014 63.9062 4.39453 63.9062 6.10609C63.9062 7.81764 65.3016 9.25057 67.0358 9.25057C68.77 9.25057 70.2052 7.85744 70.2052 6.10609Z" fill="#E6E7E8"/>
<path d="M46.8251 9.6287C48.7586 9.6287 50.3533 8.07636 50.3533 6.10608C50.3533 4.1358 48.7586 2.62326 46.8251 2.62326C44.8916 2.62326 43.2969 4.1756 43.2969 6.10608C43.2969 8.03655 44.8517 9.6287 46.8251 9.6287Z" fill="#E6E7E8"/>
<path d="M26.571 10.0267C28.7437 10.0267 30.5178 8.27537 30.5178 6.10607C30.5178 3.93677 28.7637 2.22522 26.571 2.22522C24.3783 2.22522 22.6641 3.97658 22.6641 6.10607C22.6641 8.23557 24.4381 10.0267 26.571 10.0267Z" fill="#E6E7E8"/>
<path d="M6.35105 11.3004C9.22146 11.3004 11.5736 8.97194 11.5736 6.10608C11.5736 3.24021 9.2414 0.951508 6.35105 0.951508C3.46071 0.951508 1.14844 3.24021 1.14844 6.10608C1.14844 8.97194 3.48065 11.3004 6.35105 11.3004Z" fill="#E6E7E8"/>
</g>
</g>
<defs>
<clipPath id="clip0_3441_57712">
<rect width="131" height="510" fill="white"/>
</clipPath>
</defs>
</svg>
