<svg width="300" height="93" viewBox="0 0 300 93" fill="none" xmlns="http://www.w3.org/2000/svg">
<path d="M69.1875 67.518C69.375 67.89 69.375 68.448 69.375 68.82C69.375 70.866 67.6875 72.354 65.8125 72.354C64.5 72.354 63 71.424 62.4375 70.122L49.3125 43.896H31.125C28.875 43.896 27.1875 41.85 27.5625 39.618C27.9375 37.944 29.4375 36.828 31.3125 36.828H37.3125H45.75L34.5 15.252L6.75 70.122C6.1875 71.424 4.6875 72.354 3.375 72.354C1.5 72.354 0 70.68 0 68.82C0 68.448 0.1875 67.89 0.1875 67.518L31.5 3.906C32.0625 2.604 33.5625 1.674 34.875 1.674C36.1875 1.674 37.6875 2.604 38.25 3.906L69.1875 67.518Z" fill="#1D1D1B"/>
<path d="M116.812 24.366C116.812 24.924 116.625 25.482 116.437 26.04L94.3125 70.122C93.75 71.238 92.25 72.168 90.9375 72.168C89.625 72.168 88.125 71.238 87.5625 70.122L65.4375 26.04C65.25 25.668 65.0625 24.924 65.0625 24.366C65.0625 22.32 66.75 20.646 68.8125 20.646C70.125 20.646 71.625 21.576 72.1875 22.692L91.125 60.45L110.25 22.692C110.812 21.576 112.312 20.646 113.625 20.646C114.187 20.646 114.75 20.832 115.312 21.018C115.875 21.762 116.812 23.064 116.812 24.366Z" fill="#1D1D1B"/>
<path d="M136.875 24.366V68.82C136.875 70.68 135.75 72.168 133.875 72.54C131.625 72.912 129.562 71.238 129.562 68.82V24.366C129.562 22.32 131.25 20.646 133.312 20.646C135.375 20.646 136.875 22.32 136.875 24.366Z" fill="#1D1D1B"/>
<path d="M204 24.366V45.384C204 51.708 200.438 60.078 196.125 64.542C191.625 69.006 183 72.354 176.813 72.354C161.625 72.354 149.438 60.264 149.438 45.198V24.552C149.438 22.692 150.563 21.204 152.438 20.832C154.875 20.46 156.938 22.134 156.938 24.366V44.826C156.938 55.242 164.813 64.17 175.5 64.914C187.125 65.844 197.063 56.544 197.063 45.198V24.366C197.063 22.32 198.75 20.646 200.813 20.646C202.313 20.646 204 22.32 204 24.366Z" fill="#1D1D1B"/>
<path d="M300 43.524V87.792C300 89.838 298.312 91.326 296.25 91.326C294.187 91.326 292.687 89.652 292.5 87.792V43.896C292.5 35.712 286.312 28.644 278.062 27.9C268.688 26.97 260.625 34.41 260.625 43.524V76.26C260.625 78.306 258.937 79.794 256.875 79.794C254.812 79.794 253.312 78.12 253.125 76.26V43.896C253.125 35.712 246.938 28.644 238.688 27.714C229.875 26.97 221.812 34.224 221.812 43.524V68.262C221.812 69.936 220.687 71.61 218.812 71.982C216.375 72.354 214.312 70.68 214.312 68.448V43.524C214.312 30.876 224.625 20.646 237.375 20.646C241.125 20.646 246.562 22.32 249.75 24.18C252.187 25.668 255.375 28.83 256.687 31.062C258.187 28.644 261.375 25.482 263.625 24.18C266.813 22.134 272.25 20.646 276 20.646C289.687 20.646 300 30.876 300 43.524Z" fill="#1D1D1B"/>
</svg>
